<svg width="50" height="42" viewBox="0 0 50 42" fill="none" xmlns="http://www.w3.org/2000/svg">
<path d="M15.166 9.91821e-05L0 40.087L0.903992 40.1052L13.362 7.2665L17.516 18.2251H10.884C10.765 18.5356 10.673 18.7699 10.581 19.0147H17.837L25.811 40.1052H31.735L16.477 0H15.166V9.91821e-05Z" fill="#07273E"/>
<path d="M34.4833 18.7655H29.3603L29.3583 0.9135C30.1773 0.9058 30.4443 0.9135 31.1143 0.9135H33.1493C34.1143 0.9135 35.0863 0.9805 36.0703 1.1712C37.0533 1.3628 37.9443 1.764 38.7433 2.3747C39.5413 2.9864 40.1913 3.8936 40.6923 5.0968C41.1933 6.3006 41.4443 7.896 41.4443 9.882C41.4443 11.6402 41.2773 13.0915 40.9433 14.2377C40.6083 15.3838 40.1353 16.2922 39.5223 16.9601C38.9103 17.6288 38.1773 18.0975 37.3233 18.3642C36.4693 18.6319 35.5223 18.7655 34.4833 18.7655ZM45.6203 37.9641C46.8823 36.9322 47.8283 35.7002 48.4603 34.2674C49.0913 32.8346 49.4073 31.2586 49.4073 29.5397C49.4073 27.8972 49.0533 26.4449 48.3493 25.184C47.6433 23.9231 46.7243 22.8629 45.5923 22.0034C44.4593 21.1438 43.1983 20.4757 41.8063 19.9973C40.4143 19.5203 39.0493 19.2238 37.7133 19.1093V18.9946C39.0123 18.8426 40.2553 18.5172 41.4443 18.0202C42.6323 17.5241 43.6803 16.874 44.5903 16.0718C45.4993 15.2691 46.2233 14.3336 46.7623 13.2638C47.2993 12.1942 47.5693 11.0285 47.5693 9.7676C47.5693 8.8506 47.3833 7.8291 47.0123 6.7016C46.6413 5.5752 45.9543 4.5239 44.9523 3.5497C43.9503 2.5756 42.5763 1.7541 40.8313 1.0855C39.0863 0.417401 36.8243 0 34.1143 0C33.5943 0 23.7893 0 23.7893 0L23.7793 7.4936L29.3643 22.6175L29.3603 19.5674H35.4863C37.9723 19.5674 39.8473 20.447 41.1103 22.2038C42.3713 23.9617 43.0033 26.3685 43.0033 29.4247C43.0033 31.5651 42.8173 33.3415 42.4463 34.7548C41.6273 37.7059 39.4183 40.7171 36.2863 41.2848C36.2863 41.2848 38.2763 41.1684 40.8313 40.3996C42.7643 39.818 44.3583 38.9956 45.6203 37.9642V37.9641Z" fill="#07273E"/>
</svg>
